<?xml version="1.0" encoding="UTF-8"?><svg id="Layer_1" xmlns="http://www.w3.org/2000/svg" viewBox="0 0 16 16"><defs><style>.cls-1{fill:#606aea;}.cls-1,.cls-2,.cls-3,.cls-4,.cls-5,.cls-6{stroke-width:0px;}.cls-2{fill:#4850b0;}.cls-3{fill:#2e3192;}.cls-4{fill:#cad0ff;}.cls-5{fill:#fff;}.cls-6{fill:#f7931e;}</style></defs><rect class="cls-4" width="16" height="16"/><rect class="cls-1" x="10.98" y="4.14" width="5.02" height="7.73" rx="1.3" ry="1.3"/><rect class="cls-1" y="4.14" width="5.02" height="7.73" rx="1.3" ry="1.3"/><rect class="cls-2" x="9" y="3.37" width="6.01" height="9.25" rx="1.3" ry="1.3"/><rect class="cls-2" x=".99" y="3.37" width="6.01" height="9.25" rx="1.3" ry="1.3"/><rect class="cls-3" x="2.45" y="2.71" width="11.08" height="10.58" rx="1.3" ry="1.3"/><polygon class="cls-6" points="3.96 8.76 3.07 7.96 3.96 7.15 4.17 7.4 3.55 7.96 4.17 8.52 3.96 8.76"/><polygon class="cls-6" points="12.03 8.76 11.81 8.52 12.43 7.96 11.81 7.4 12.03 7.15 12.91 7.96 12.03 8.76"/><path class="cls-5" d="m11.11,5.12h-6.24c-.16,0-.28.13-.28.28v5.16c0,.16.13.28.28.28h6.24c.16,0,.28-.13.28-.28v-5.16c0-.16-.13-.28-.28-.28Zm-2.51,1.11c.47,0,.85.38.85.85s-.38.85-.85.85-.85-.38-.85-.85c0-.47.38-.85.85-.85Zm2.25,3.97h-5.73v-2.56l1.15-1.42,2.29,3.13,1.43-1.14.86.85v1.14Z"/></svg>